<svg t="1581330498048" class="icon" viewBox="0 0 1056 1024" version="1.1" xmlns="http://www.w3.org/2000/svg" p-id="9830" width="128" height="128"><path d="M919.622286 676.108827V554.396507c0-39.124989-32.56715-71.736548-65.223119-71.736548H567.43817v-67.636048c101.269032-15.128921 176.158672-100.025559 176.158673-206.298089 0-117.389771-91.306445-208.725822-208.725822-208.725822s-208.725822 91.306445-208.725822 208.725822c0 106.27253 74.830428 191.169168 176.158672 206.298089v67.636048H215.239252c-39.124989 0-65.223119 32.56715-65.223119 71.736548v119.29939a175.951427 175.951427 0 1 0 65.223119 2.41293V547.883077h639.174719v125.827624a175.96623 175.96623 0 1 0 65.223118 2.412929z" p-id="9831" fill="#008500"></path></svg>